<svg id="Icons" height="512" viewBox="0 0 74 74" width="512" xmlns="http://www.w3.org/2000/svg"><path d="m32.781 38.6h-29.781a1 1 0 0 1 -1-1v-6.475a8.827 8.827 0 0 1 8.817-8.817h14.146a8.827 8.827 0 0 1 8.818 8.817v6.475a1 1 0 0 1 -1 1zm-28.781-2h27.781v-5.475a6.825 6.825 0 0 0 -6.818-6.817h-14.146a6.825 6.825 0 0 0 -6.817 6.817z"/><path d="m17.89 19.75a8.875 8.875 0 1 1 8.875-8.875 8.885 8.885 0 0 1 -8.875 8.875zm0-15.75a6.875 6.875 0 1 0 6.875 6.875 6.883 6.883 0 0 0 -6.875-6.875z"/><path d="m26 38.6h-16.214a1 1 0 0 1 -1-1v-4.48a1 1 0 0 1 2 0v3.48h14.214v-3.48a1 1 0 0 1 2 0v4.48a1 1 0 0 1 -1 1z"/><path d="m67.619 59.08a1 1 0 0 1 -.561-.173 6.838 6.838 0 0 0 -1.4-.734 1 1 0 0 1 .72-1.866 8.91 8.91 0 0 1 1.8.946 1 1 0 0 1 -.563 1.827z"/><path d="m71 72.01h-29.78a1 1 0 0 1 -1-1v-6.48a8.83 8.83 0 0 1 8.82-8.82h12.31a1 1 0 0 1 0 2h-12.31a6.828 6.828 0 0 0 -6.82 6.82v5.48h27.78v-5.48a6.789 6.789 0 0 0 -.418-2.354 1 1 0 0 1 1.876-.692 8.753 8.753 0 0 1 .542 3.046v6.48a1 1 0 0 1 -1 1z"/><path d="m56.114 53.154a8.875 8.875 0 1 1 8.875-8.875 8.885 8.885 0 0 1 -8.875 8.875zm0-15.75a6.875 6.875 0 1 0 6.875 6.875 6.883 6.883 0 0 0 -6.875-6.879z"/><path d="m64.218 72.006h-16.209a1 1 0 0 1 -1-1v-4.482a1 1 0 0 1 2 0v3.482h14.209v-3.482a1 1 0 0 1 2 0v4.482a1 1 0 0 1 -1 1z"/><path d="m60.085 27.42a1 1 0 0 1 -1-1v-6a8.51 8.51 0 0 0 -8.5-8.5h-8a1 1 0 0 1 0-2h8a10.512 10.512 0 0 1 10.5 10.5v6a1 1 0 0 1 -1 1z"/><path d="m46.5 15.836a.993.993 0 0 1 -.707-.293l-3.917-3.916a1 1 0 0 1 0-1.414l3.924-3.913a1 1 0 1 1 1.409 1.41l-3.209 3.21 3.209 3.209a1 1 0 0 1 -.707 1.707z"/><path d="m31.418 64.086h-8a10.512 10.512 0 0 1 -10.5-10.5v-6a1 1 0 0 1 2 0v6a8.51 8.51 0 0 0 8.5 8.5h8a1 1 0 0 1 0 2z"/><path d="m27.5 68a1 1 0 0 1 -.7-1.7l3.2-3.214-3.2-3.209a1 1 0 0 1 1.414-1.414l3.916 3.916a1 1 0 0 1 0 1.414l-3.921 3.917a.993.993 0 0 1 -.709.29z"/></svg>